<?xml version="1.0" encoding="UTF-8"?>
<svg id="Layer_2" xmlns="http://www.w3.org/2000/svg" version="1.1" viewBox="0 0 88.49 88.55">
  <!-- Generator: Adobe Illustrator 29.8.2, SVG Export Plug-In . SVG Version: 2.1.1 Build 3)  -->
  <path d="M47.39,76.97c.16-.11.31-.26.45-.41,1.6-1.73,3.16-3.63,4.72-5.41,6.43-7.36,12.76-14.8,19.27-22.09,2.74-2.53,6.5,1.35,4.2,4.14-10,11.37-19.84,22.89-29.77,34.31-1.4,1.26-2.52,1.43-4,.17-10.03-11.36-19.85-22.93-29.74-34.42-1.28-1.74-1.01-3.82,1.03-4.78,1.6-.76,2.65.17,3.69,1.29,2.72,2.93,5.31,6.27,7.94,9.31,4.19,4.86,8.36,9.91,12.66,14.65.86.95,1.79,1.82,2.64,2.77l.65-.17c0-18.57.1-37.14.03-55.71-.01-4.48-.11-9-.14-13.48-.02-2.81-.58-7.9,3.85-7.07,2.18.41,2.27,2.36,2.31,4.19-.11,16.42.19,32.83,0,49.23.28,7.06-.37,14.41,0,21.44.04.67.21,1.34.21,2.02Z"/>
</svg>