<?xml version="1.0" encoding="UTF-8"?>
<svg id="Layer_4" xmlns="http://www.w3.org/2000/svg" version="1.1" viewBox="0 0 88.49 88.55">
  <!-- Generator: Adobe Illustrator 29.8.2, SVG Export Plug-In . SVG Version: 2.1.1 Build 3)  -->
  <defs>
    <style>
      .st0 {
        fill: #8ca990;
      }

      .st1 {
        fill: #2c4a3a;
      }
    </style>
  </defs>
  <path class="st0" d="M32.88,86.92C3.06,79.27-9.82,43.65,8.41,18.45,16.9,6.71,32.01-.83,46.5.07c.71.04,4.51.44,4.7.58.41.29.35.79.4,1.22.43,3.55.37,13.04-.02,16.66-.31,2.89-2.19,5.04-5.12,5.44-7.05.96-19.34-1.73-25.32,1.5-5.5,2.98-7.72,10.99-4.38,16.26,1.8,2.84,5.68,4.73,8.99,5.02,12.3,1.08,26.13-.85,38.6.01,1.31.53,2.88,1.2,3.67,2.43,2.26,3.57-.03,8.13-4.14,8.81-7.82,1.31-22.19-2.63-27.96,3.33-.67.69-2.79,3.11-3.03,5.49-.5,5,0,20.09,0,20.09Z"/>
  <path class="st1" d="M57.27,2.1c1.6.7,3.32,1.08,4.92,1.79,11.54,5.13,22.03,17.19,25.04,29.78,7.29,30.5-18.05,58.62-49.06,54.47,1.3-6.17-.35-13.52.4-19.69.13-1.05.74-2.24,1.47-3.01.07-.08,1.62-1.17,1.72-1.2,1.55-.61,4.56.06,6.4-.01,4.25-.15,13.41.5,16.57-.21.31-.07,1.89-.87,2.22-1,11.27-4.04,10.05-19.25-1.43-21.86l-40.12-.12c-6.27-1.93-5.62-10.29.9-11.24,5.22-.76,13.05-.07,18.61-.13,1.62-.01,3.1.54,4.92-.29,2.97-1.34,7.46-5.84,7.46-9.23V2.1Z"/>
</svg>