<?xml version="1.0" encoding="UTF-8"?>
<svg id="Layer_2" xmlns="http://www.w3.org/2000/svg" version="1.1" viewBox="0 0 88.49 88.55">
  <!-- Generator: Adobe Illustrator 29.8.2, SVG Export Plug-In . SVG Version: 2.1.1 Build 3)  -->
  <defs>
    <style>
      .st0 {
        fill: #777;
        opacity: .4;
      }
    </style>
  </defs>
  <path class="st0" d="M82.42,88.55h-2.79c-1.24-.56-2.52-1.02-3.54-1.95l-19.47-19.43c-11.56,7.56-26.41,7.35-38.64.88C5.22,61.28-.03,50.33,0,34.03.03,18.98,11.61,5.84,26.05,1.57c26.35-7.8,51.21,14.65,46.45,41.62-.84,4.79-2.74,9.33-5.32,13.43l19.43,19.47c3.94,4.77,1.61,10.98-4.19,12.47ZM34.75,11.2c-19.29,1.39-30.15,23.32-19.32,39.49,10.25,15.31,33.13,14.98,42.76-.79,10.78-17.65-2.83-40.18-23.44-38.7Z"/>
</svg>