<?xml version="1.0" encoding="UTF-8"?>
<svg id="Layer_2" xmlns="http://www.w3.org/2000/svg" version="1.1" viewBox="0 0 88.49 88.55">
  <!-- Generator: Adobe Illustrator 29.8.2, SVG Export Plug-In . SVG Version: 2.1.1 Build 3)  -->
  <defs>
    <style>
      .st0 {
        fill: #8ca990;
      }
    </style>
  </defs>
  <path class="st0" d="M40.3.23C-18.34,4.79-10.79,93.67,48.72,88.31,105.57,83.2,100.34-4.43,40.3.23ZM27.43,78.27c-3.65-1.54,1.21-6.29.35-9.33-.29-1.03-5.97-5.56-7.47-8.4C6.81,35.09,40.25,20.65,56.49,9.99c-.24,2.27-1.16,4.84-1.96,7-2.32,6.29-5,11.88-7.44,17.62-.33.77-.65,1.54-.96,2.31-.4.76-.81,1.48-1.24,2.1-1.83,2.61-3.47-3.04-5.48-2.83,1.86,4.62,2.87,6.85,2.6,11.26-.86,1.56-2.39,4.41-3.2,6.15-2.8-1.78-4.11-4.92-6.14-7.19-.73-.81-2.18-3.08-3.12-1.64,3.25,4.35,7.46,9.69,7.44,14.89-.77,1.95-1.45,3.95-2.13,5.94-1.36,3.97-2.72,7.92-4.75,11.41-.73,1.25-.64,2.1-2.67,1.25ZM60.89,65.77c-6.48,7.16-17.26,8.92-26.16,6.44-.2-2.8.45-4.94,1.64-6.6,3.17-4.41,10.22-5.44,15.74-6.42.24-1.72-2.3-1.07-3.37-.98-2.98.25-5.99,1.65-9.22.99.31-1.06.58-2.12.83-3.19.89-2.24,1.76-4.54,2.29-6.34,2.79-3.29,5.03-4.13,9.47-6.04-1.29-1.62-6.29,1.19-5.82-2,.14-.97.41-2,.74-3.08.74-1.82,1.43-3.63,2.09-5.41,3.06-6.91,7.54-14.73,8.72-20.72l2.02-1.43c2.39,16.1,13.46,41.05,1.02,54.8Z"/>
</svg>