<?xml version="1.0" encoding="UTF-8"?>
<svg id="Layer_1" xmlns="http://www.w3.org/2000/svg" version="1.1" viewBox="0 0 88.49 88.55">
  <!-- Generator: Adobe Illustrator 29.8.2, SVG Export Plug-In . SVG Version: 2.1.1 Build 3)  -->
  <defs>
    <style>
      .st0 {
        fill: #2c4a3a;
      }
    </style>
  </defs>
  <path class="st0" d="M39.96.21c60.37-4.99,64.86,81.79,11.01,87.94C-11.01,95.23-18.58,5.04,39.96.21ZM55.75,24l12.16-3.75c.22-.07.18-.37-.04-.39l-9.74-.91s2.92-5.67,1.76-4.97c-8.1,4.9-5.86-.57-8.1-5.88-.63-1.5-1.33-2.95-1.23-1.15.2,3.86-.89,9.98-.05,13.38.2.81,3.47,1.35,5.24,3.68-5.98-2.63-12.31-3.11-16.59,2.55l4.12,4.47c-1.61.48-5.18-1.66-6.18-.96-.42.29-3.24,8.96-3.12,9.44.37,1.51,3.33.88,3.06,2.57-4.41-2.27-4.85.45-6.02,4.78-1.28,4.75-3.93,11-5.11,17.09-.79,4.1-3.73,16.34,3.92,10.81,1.66-1.2,8.15-8.18,9.32-10.05,1.02-1.63.75-3.8,1.25-4.38.33-.39,1.99.1,2.94-.83,4-3.91,1.64-8.09,2.02-8.37s2.74.45,3.95-.21c.44-.24,3.77-6.04,3.22-6.75-.33-.42-2.41.65-1.96-1.07,9.41-.46,9.94-12.8,5.19-19.09Z"/>
</svg>