<?xml version="1.0" encoding="UTF-8"?>
<svg id="Layer_5" xmlns="http://www.w3.org/2000/svg" version="1.1" viewBox="0 0 88.49 88.55">
  <!-- Generator: Adobe Illustrator 29.8.2, SVG Export Plug-In . SVG Version: 2.1.1 Build 3)  -->
  <defs>
    <style>
      .st0 {
        fill: #c0a46b;
      }
    </style>
  </defs>
  <path class="st0" d="M45.46,46.13c-2.71-.66-2.54-8.16-3.52-10.99-2.51-7.23-8.78-7.58-14.02-12-1.14.23-.13,2.61-.5,3-1.72,1.81-14.06-10.72-14.06-12.5,0-2.93,9.64-8.5,12.38-9.68,37.2-16.01,73.91,19.37,59.28,57.16-1.05,2.7-7.25,14.06-9.99,14.08-1.26,0-11.45-9.95-12.55-11.55-2.35-3.43-.55-6.76-5-4.51-.06-3.74,3.04-4.85,3.76-8.73.39-2.09.75-6.54-.23-8.29s-1.76-.22-2.79.26c-1.78.84-3.72,1.68-5.45,2.57-1.31.68-6.48,6.27-6.32,1.19.97-.27,7.26-3.45,8.36-4.16,6.97-4.52,7.76-11.07,6.16-18.85-10.05,5.46-17.73,9.87-15.52,23.01ZM45.44,32.12c.41-.29,4.34-8.16,4.55-8.96,1.73-6.7-1.75-11.27-6.04-16.01-2.49,2.71-6.52,7.73-6.55,11.46-.02,2.8,5.49,15.28,8.04,13.51Z"/>
  <path class="st0" d="M60.99,70.15c-3.18,5.37-9.31,8.71-15.53,8.98-.4-5.57.14-10.32,3.96-14.59.94-1.05,2.93-1.3,3.04-1.43,2.58-3.01-3.88-1.34-5-.98-.14.04-1.24,2.63-2,0-.71-2.46,1.05-12.13-4.02-10.49.69,3.62,3.92,8.5.49,11.49-11.13-4.45-18.02-9.98-14.49-23.01,2.31,2.27,3.26,2.27,6,3-2.86-4.33-18.72-20.25-23.05-23.5-.64-.48-1.25-1.99-2.01-1.02-26.14,37.47,13.53,84.91,55.5,65.41,1.21-.56,5.92-2.77,5.68-4.36-.42-2.84-6.77-7.01-8.57-9.51ZM43.45,81.12c-11.18-4.32-20.31-10.46-16.02-23.99,10.53,6.1,17.86,9.92,16.02,23.99Z"/>
</svg>