<?xml version="1.0" encoding="UTF-8"?>
<svg id="Layer_3" xmlns="http://www.w3.org/2000/svg" version="1.1" viewBox="0 0 88.49 88.55">
  <!-- Generator: Adobe Illustrator 29.8.2, SVG Export Plug-In . SVG Version: 2.1.1 Build 3)  -->
  <defs>
    <style>
      .st0 {
        fill: #2e2e2e;
      }
    </style>
  </defs>
  <path class="st0" d="M34.82,68.78c.35,2.08,1.52,3.02,3.18,3.19,3.17.33,9.61.37,12.75-.01,2.35-.29,3.03-2.2,3.2-4.83.15-2.42.18-9.44.16-11.83l-19.2-11.81-.08,25.29Z"/>
  <path class="st0" d="M53,34.95c-.6-.46-1.4-.69-2.19-.58-1.76.25-3.46,1.99-5.18,2.86-1.42.72-2.48,1.05-3.55,1.17l1.18.73,10.64,6.55c-.07-3-.09-6.01.06-9.07-.06-.69-.43-1.26-.95-1.66Z"/>
  <path class="st0" d="M88.46,43.16c-.18-8.33-2.71-16.69-7.85-24.07,0,0,0,0,0,0-.33-.48-.67-.95-1.03-1.42-.36-.48-.74-.96-1.12-1.43-.05-.07-.11-.13-.16-.2-.3-.36-.58-.73-.9-1.08C68.48,4.88,56.5.12,44.64.06c-.13,0-.26,0-.39,0-.08,0-.17,0-.25,0-.49,0-.97.02-1.46.04-5.08.19-9.94,1.24-14.44,3.01-.23.09-.47.18-.7.28-.21.08-.42.17-.62.26-7.03,2.98-13.35,7.78-18.1,14.23l.06.03,21.3,13.1c1.14-4.87,4.43-12.81,3.1-15.74-.34-.75-1.31-.89-1.52-1.76-.36-1.58.19-3.15,1.93-3.35l21.12.02c1.84.5,2.42,2.72,1.22,4.13-.36.43-.76.28-1.08,1.15-1.39,3.74,3.19,13.22,3.52,17.82.35,4.93.25,10.05.1,15.2l.95.58,24.44,15.04h.02c2.55-5.07,4.14-10.71,4.55-16.67,0-.01,0-.02,0-.03.05-.73.08-1.46.1-2.19,0-.2.01-.39.01-.59,0-.1,0-.2,0-.29,0-.38-.02-.76-.03-1.14Z"/>
  <path class="st0" d="M72.71,66.73l-14.53-8.94c-.03,2.81-.01,12.22.14,14.96-.57,3.77-3.3,5.5-6.92,5.75-4.17.29-10.63.28-14.81,0-3.52-.24-5.97-1.79-6.92-5.29.53-8.55-.31-24.36-.27-33.12l-14.03-8.63-10.85-6.67h0c-.04.08-.08.16-.12.24-.02.05-.05.1-.07.15-.15.31-.28.62-.42.93-1.86,4.12-3.1,8.59-3.62,13.27-.06.5-.11,1-.15,1.5-.01.18-.03.36-.04.53-.02.35-.04.7-.06,1.05-.02.54-.04,1.07-.04,1.61,0,.07,0,.15,0,.22,0,.01,0,.03,0,.04,0,.68.02,1.36.05,2.03,0,.18.02.35.03.53.03.48.07.96.11,1.44.02.24.04.48.07.72.03.24.06.47.09.71,2.46,19.94,18.17,35.76,38.05,38.38.25.03.51.07.76.1.29.03.59.07.88.1.63.06,1.27.11,1.91.15.03,0,.06,0,.09,0,.63.03,1.26.04,1.89.05.02,0,.03,0,.05,0,.09,0,.18,0,.27,0,.1,0,.21,0,.31,0,.45,0,.9-.02,1.35-.03.56-.02,1.13-.06,1.69-.1.19-.01.38-.04.57-.06.38-.03.75-.07,1.13-.11.17-.02.34-.05.51-.07.63-.08,1.25-.17,1.88-.28.06-.01.12-.02.18-.03.03,0,.05-.01.08-.02,4.77-.84,9.28-2.42,13.4-4.66,0,0,0,0,0,0,.03-.01.05-.03.08-.04.61-.33,1.21-.67,1.8-1.02.31-.19.62-.39.92-.59.31-.19.61-.39.91-.59,4.13-2.77,7.65-6.16,10.51-9.98h0s-6.85-4.22-6.85-4.22Z"/>
</svg>