<?xml version="1.0" encoding="UTF-8"?>
<svg id="Layer_5" xmlns="http://www.w3.org/2000/svg" version="1.1" viewBox="0 0 678.25 89.62">
  <!-- Generator: Adobe Illustrator 29.8.2, SVG Export Plug-In . SVG Version: 2.1.1 Build 3)  -->
  <defs>
    <style>
      .st0 {
        fill: #c0a46b;
      }

      .st1 {
        fill: #2c4a3a;
      }
    </style>
  </defs>
  <path class="st1" d="M84.47,3.02c.32.13,1.78.92,2.32,1.21,14.44,7.59,16.9,26.05,6.41,38.14-2.17,2.5-6.43,5.04-7.36,7.97-.76,2.38-.84,4.81-2.06,7.19-4.88,9.46-22.95,15.54-32.89,13.49-11.27-2.33-3.44-16.43.8-21.95,5.17-6.75,13.25-11.84,22.04-11.33,3.3.19,8.46,2.45,10.78-1.12,2.79-4.29.35-12.95-3.5-16.14-10.16-8.42-21.72,1.69-27.98,9.74-.43.55-2.71,4.06-2.96,4.11-.31.06-.53-.28-.7-.49-2.09-2.69-3.32-5.79-5.85-8.51-6.14-6.6-16-10.38-23.86-4.13-10.95,8.71-3.5,27.04,3.77,35.88,12.1,14.71,27.5,23.26,47.12,22.04,8.09-.5,21.56-5.82,26.03-12.92,1.36-2.17.42-4.52.63-6.91.61-6.84,9.44-14.54,14.36-18.99,3.66-3.31,9.11-8.32,13.03-11.07,2.02-1.41,3.94-.32,2.65,1.68-3.68,5.7-10.99,10.91-14.78,16.74-1.02.72-4.18,3.67-1.01,3.01,5.48-4.38,10.58-9.83,16.06-14.13.51-.4,3.28-2.38,3.67-2.44,1.18-.17,1.85,1.17,1.44,2.19-4.25,4.69-9.47,8.91-13.64,13.63-.6.68-3.23,3.9-3.29,4.52-.1,1.08.76,1.14,1.56.81,4.33-1.81,11.2-9.68,15-13,.93-.81,4.65-4.27,4.64-.97,0,.8-2.15,3.24-2.81,4.02-3.65,4.32-8.79,8.74-12.06,13.26-1.71,2.36-.22,2.45,1.69,1.2,4.7-3.09,10.03-8.88,14.28-12.87.85-.8,1.52-2.45,3.02-1.72,1.81.88-.73,3.43-1.47,4.37-4.9,6.29-11.48,13.79-17.28,19.23-3.16,2.97-7.12,6.6-11.78,6.17-.99-.09-2.32-.7-3.2-.7-1.71,0-4.06,2.73-5.49,3.76-32.26,23.21-81.39,10.21-97.84-25.81C-3.71,35.33-1.03,10.08,18.91,3.65c9.17-2.96,23.76.13,29.36,8.4.5.74,1.48,3.21,2.3,3.06.16-.03,1.1-1.77,1.35-2.08,7.66-9.68,20.51-15.09,32.55-10.02Z"/>
  <path class="st0" d="M40.96,54.04h-3.53c-1.99,0-7.75-2.27-9.46-3.45-7.22-4.99-6.31-18.42-3.2-25.51.84-1.91,4.39-.44,5.96.13,8.19,2.96,14.7,9.47,15.34,18.49.08,1.08.07,7.69-.85,7.9l-3.41-3.65-2.91-3.66-4.51-4.25,6.57,13.99Z"/>
  <path class="st0" d="M168.87,57.95c-3.62-1.23-6.91-2.49-9.86-3.76-2.96-1.27-5.51-2.81-7.64-4.62-2.14-1.81-3.8-3.96-4.99-6.47-1.19-2.51-1.79-5.57-1.79-9.19,0-6.99,2.69-12.58,8.08-16.77,5.38-4.19,12.93-6.29,22.63-6.29,3.53,0,6.82.25,9.86.74,3.04.49,5.65,1.25,7.83,2.28,2.18,1.03,3.88,2.34,5.12,3.95,1.23,1.6,1.85,3.47,1.85,5.61s-.49,3.97-1.48,5.49c-.99,1.52-2.18,2.82-3.58,3.88-1.81-1.15-4.23-2.16-7.27-3.02-3.04-.86-6.37-1.3-9.99-1.3s-6.41.51-8.14,1.54c-1.73,1.03-2.59,2.32-2.59,3.88,0,1.23.53,2.24,1.6,3.02,1.07.78,2.67,1.5,4.81,2.16l6.54,2.1c7.73,2.47,13.67,5.61,17.82,9.43,4.15,3.82,6.23,9.02,6.23,15.6,0,6.99-2.76,12.64-8.26,16.95-5.51,4.32-13.61,6.47-24.29,6.47-3.78,0-7.3-.31-10.54-.92-3.25-.62-6.08-1.52-8.51-2.71-2.43-1.19-4.32-2.67-5.67-4.44-1.36-1.77-2.03-3.8-2.03-6.1s.7-4.42,2.1-6.1c1.4-1.68,2.92-2.98,4.56-3.88,2.3,1.81,5.12,3.37,8.45,4.69,3.33,1.32,6.97,1.97,10.91,1.97s6.86-.62,8.51-1.85c1.64-1.23,2.47-2.67,2.47-4.32s-.66-2.9-1.97-3.76c-1.32-.86-3.17-1.7-5.55-2.53l-5.18-1.73Z"/>
  <path class="st0" d="M239.89,25.9c4.44,0,8.49.45,12.15,1.36,3.66.91,6.78,2.28,9.37,4.13s4.58,4.19,5.98,7.03c1.4,2.84,2.1,6.19,2.1,10.05v27.62c0,2.14-.6,3.88-1.79,5.24-1.19,1.36-2.61,2.53-4.25,3.51-5.34,3.21-12.87,4.81-22.57,4.81-4.36,0-8.28-.41-11.78-1.23-3.49-.82-6.49-2.05-9-3.7-2.51-1.64-4.44-3.74-5.8-6.29-1.36-2.55-2.03-5.51-2.03-8.88,0-5.67,1.68-10.03,5.06-13.07,3.37-3.04,8.59-4.93,15.66-5.67l16.15-1.73v-.86c0-2.38-1.05-4.09-3.14-5.12-2.1-1.03-5.12-1.54-9.06-1.54-3.13,0-6.17.33-9.12.99-2.96.66-5.63,1.48-8.02,2.47-1.07-.74-1.97-1.87-2.71-3.39-.74-1.52-1.11-3.1-1.11-4.75,0-2.14.51-3.84,1.54-5.12,1.03-1.27,2.61-2.36,4.75-3.27,2.38-.9,5.2-1.56,8.45-1.97,3.25-.41,6.31-.62,9.19-.62ZM240.88,74.35c1.4,0,2.94-.14,4.62-.43,1.68-.29,2.94-.68,3.76-1.17v-9.86l-8.88.74c-2.3.17-4.19.66-5.67,1.48-1.48.82-2.22,2.06-2.22,3.7s.64,2.98,1.91,4.01c1.27,1.03,3.43,1.54,6.47,1.54Z"/>
  <path class="st0" d="M282.55,27.74c0-4.19.72-7.79,2.16-10.79,1.44-3,3.39-5.47,5.86-7.4,2.47-1.93,5.36-3.35,8.69-4.25,3.33-.9,6.88-1.36,10.67-1.36,6.08,0,10.56.8,13.44,2.4,2.88,1.6,4.32,4.34,4.32,8.2,0,1.65-.35,3.13-1.05,4.44-.7,1.32-1.46,2.3-2.28,2.96-1.56-.41-3.19-.76-4.87-1.05-1.69-.29-3.64-.43-5.86-.43-3.54,0-6.29.6-8.26,1.79-1.97,1.19-2.96,3.27-2.96,6.23v3.95h20.22c.49.91.97,2.03,1.42,3.39.45,1.36.68,2.86.68,4.5,0,2.88-.64,4.95-1.91,6.23s-2.98,1.91-5.12,1.91h-14.18v39.09c-.82.25-2.12.49-3.88.74-1.77.25-3.6.37-5.49.37s-3.43-.12-4.87-.37c-1.44-.25-2.65-.74-3.64-1.48-.99-.74-1.75-1.75-2.28-3.02-.54-1.27-.8-2.94-.8-4.99V27.74Z"/>
  <path class="st0" d="M364.31,89.65c-4.85,0-9.35-.68-13.5-2.03-4.15-1.36-7.77-3.39-10.85-6.1-3.08-2.71-5.51-6.12-7.28-10.23-1.77-4.11-2.65-8.92-2.65-14.43s.88-10.09,2.65-14c1.77-3.9,4.09-7.11,6.97-9.62,2.88-2.51,6.17-4.36,9.86-5.55,3.7-1.19,7.48-1.79,11.34-1.79,4.36,0,8.32.66,11.9,1.97,3.58,1.32,6.66,3.13,9.25,5.43,2.59,2.3,4.6,5.06,6.04,8.26,1.44,3.21,2.16,6.7,2.16,10.48,0,2.8-.78,4.93-2.34,6.41-1.56,1.48-3.74,2.43-6.54,2.84l-30.46,4.56c.9,2.71,2.75,4.75,5.55,6.1,2.79,1.36,6,2.03,9.62,2.03,3.37,0,6.55-.43,9.56-1.3,3-.86,5.44-1.87,7.34-3.02,1.31.82,2.42,1.97,3.33,3.45.9,1.48,1.36,3.04,1.36,4.69,0,3.7-1.73,6.45-5.18,8.26-2.63,1.4-5.59,2.34-8.88,2.84-3.29.49-6.37.74-9.25.74ZM360.86,41.18c-1.97,0-3.68.33-5.12.99-1.44.66-2.61,1.5-3.51,2.53-.91,1.03-1.58,2.18-2.03,3.45-.45,1.28-.72,2.57-.8,3.88l21.09-3.45c-.25-1.64-1.15-3.29-2.71-4.93-1.56-1.64-3.86-2.47-6.9-2.47Z"/>
  <path class="st1" d="M430.89,89.65c-1.4,0-3.04-.04-4.93-.12-1.89-.08-3.84-.25-5.86-.49-2.02-.25-4.01-.55-5.98-.92-1.97-.37-3.78-.88-5.43-1.54-4.52-1.73-6.78-4.73-6.78-9V19.98c0-1.73.47-3.06,1.42-4.01.94-.94,2.24-1.7,3.88-2.28,2.79-.99,6.29-1.71,10.48-2.16,4.19-.45,8.51-.68,12.95-.68,10.52,0,18.62,1.77,24.29,5.3,5.67,3.54,8.51,9,8.51,16.4,0,3.7-1.07,6.89-3.21,9.56-2.14,2.67-5.02,4.62-8.63,5.86,4.11,1.15,7.54,3.25,10.3,6.29,2.75,3.04,4.13,6.86,4.13,11.47,0,8.14-3.02,14.16-9.06,18.06-6.04,3.9-14.74,5.86-26.08,5.86ZM422.88,42.17h9c3.53,0,6.1-.66,7.71-1.97,1.6-1.31,2.4-3.25,2.4-5.8,0-2.22-.92-3.99-2.77-5.3-1.85-1.31-4.62-1.97-8.32-1.97-1.23,0-2.65.04-4.25.12-1.6.08-2.86.21-3.76.37v14.55ZM422.88,72.26c1.15.33,2.63.56,4.44.68,1.81.12,3.53.18,5.18.18,3.29,0,6.02-.68,8.2-2.03,2.18-1.36,3.27-3.47,3.27-6.35,0-2.71-.91-4.64-2.71-5.8-1.81-1.15-4.56-1.73-8.26-1.73h-10.11v15.04Z"/>
  <path class="st1" d="M476.15,11.1c0-3.12,1.05-5.75,3.14-7.89,2.1-2.14,4.87-3.21,8.32-3.21s6.23,1.07,8.32,3.21c2.1,2.14,3.14,4.77,3.14,7.89s-1.05,5.75-3.14,7.89c-2.1,2.14-4.87,3.21-8.32,3.21s-6.23-1.07-8.32-3.21c-2.1-2.14-3.14-4.77-3.14-7.89ZM498.09,87.55c-.91.16-2.24.39-4.01.68-1.77.29-3.56.43-5.36.43s-3.43-.12-4.87-.37c-1.44-.25-2.65-.74-3.64-1.48s-1.75-1.75-2.28-3.02c-.54-1.27-.8-2.94-.8-4.99V28.61c.9-.16,2.24-.39,4.01-.68,1.77-.29,3.55-.43,5.36-.43s3.43.12,4.87.37c1.44.25,2.65.74,3.64,1.48s1.75,1.75,2.28,3.02c.53,1.28.8,2.94.8,4.99v50.19Z"/>
  <path class="st1" d="M532.37,67.08c0,2.14.68,3.66,2.03,4.56,1.36.91,3.27,1.36,5.73,1.36,1.23,0,2.51-.1,3.82-.31,1.31-.2,2.47-.47,3.45-.8.74.91,1.38,1.91,1.91,3.02.53,1.11.8,2.45.8,4.01,0,3.13-1.17,5.67-3.51,7.65-2.34,1.97-6.47,2.96-12.39,2.96-7.23,0-12.8-1.65-16.71-4.93-3.91-3.29-5.86-8.63-5.86-16.03V15.78c.9-.25,2.2-.51,3.88-.8,1.68-.29,3.47-.43,5.36-.43,3.62,0,6.43.64,8.45,1.91,2.01,1.28,3.02,3.97,3.02,8.08v7.89h16.15c.49.91.96,2.03,1.42,3.39.45,1.36.68,2.86.68,4.5,0,2.88-.64,4.95-1.91,6.23s-2.98,1.91-5.12,1.91h-11.22v18.62Z"/>
  <path class="st1" d="M591.68,89.65c-4.85,0-9.35-.68-13.5-2.03-4.15-1.36-7.77-3.39-10.85-6.1-3.08-2.71-5.51-6.12-7.27-10.23-1.77-4.11-2.65-8.92-2.65-14.43s.88-10.09,2.65-14c1.77-3.9,4.09-7.11,6.97-9.62,2.88-2.51,6.17-4.36,9.87-5.55,3.7-1.19,7.48-1.79,11.34-1.79,4.36,0,8.32.66,11.9,1.97,3.58,1.32,6.66,3.13,9.25,5.43,2.59,2.3,4.6,5.06,6.04,8.26,1.44,3.21,2.16,6.7,2.16,10.48,0,2.8-.78,4.93-2.34,6.41s-3.74,2.43-6.53,2.84l-30.46,4.56c.9,2.71,2.75,4.75,5.55,6.1,2.79,1.36,6,2.03,9.62,2.03,3.37,0,6.56-.43,9.56-1.3,3-.86,5.44-1.87,7.34-3.02,1.31.82,2.42,1.97,3.33,3.45.9,1.48,1.36,3.04,1.36,4.69,0,3.7-1.73,6.45-5.18,8.26-2.63,1.4-5.59,2.34-8.88,2.84-3.29.49-6.37.74-9.25.74ZM588.23,41.18c-1.97,0-3.68.33-5.12.99-1.44.66-2.61,1.5-3.51,2.53-.91,1.03-1.58,2.18-2.03,3.45-.45,1.28-.72,2.57-.8,3.88l21.09-3.45c-.25-1.64-1.15-3.29-2.71-4.93-1.56-1.64-3.86-2.47-6.9-2.47Z"/>
  <path class="st1" d="M678.25,69.79c0,6.25-2.34,11.14-7.03,14.67-4.69,3.53-11.59,5.3-20.72,5.3-3.45,0-6.66-.25-9.62-.74s-5.49-1.25-7.58-2.28c-2.1-1.03-3.74-2.32-4.93-3.88-1.19-1.56-1.79-3.41-1.79-5.55,0-1.97.41-3.64,1.23-4.99.82-1.36,1.81-2.49,2.96-3.39,2.38,1.32,5.12,2.49,8.2,3.51,3.08,1.03,6.64,1.54,10.67,1.54,2.55,0,4.5-.37,5.86-1.11,1.36-.74,2.03-1.73,2.03-2.96,0-1.15-.49-2.05-1.48-2.71-.99-.66-2.63-1.19-4.93-1.6l-3.7-.74c-7.15-1.4-12.47-3.6-15.97-6.6-3.5-3-5.24-7.29-5.24-12.89,0-3.04.66-5.8,1.97-8.26,1.31-2.47,3.16-4.52,5.55-6.17,2.38-1.64,5.24-2.92,8.57-3.82,3.33-.9,7.01-1.36,11.04-1.36,3.04,0,5.9.23,8.57.68,2.67.45,4.99,1.13,6.97,2.03,1.97.91,3.53,2.08,4.69,3.51,1.15,1.44,1.73,3.14,1.73,5.12s-.35,3.51-1.05,4.87c-.7,1.36-1.58,2.49-2.65,3.39-.66-.41-1.64-.84-2.96-1.29-1.32-.45-2.76-.86-4.32-1.23-1.56-.37-3.14-.68-4.75-.92-1.6-.25-3.06-.37-4.38-.37-2.71,0-4.81.31-6.29.93-1.48.62-2.22,1.58-2.22,2.9,0,.91.41,1.65,1.23,2.22.82.58,2.38,1.11,4.69,1.6l3.82.86c7.89,1.81,13.5,4.3,16.83,7.46,3.33,3.17,4.99,7.26,4.99,12.27Z"/>
</svg>