<?xml version="1.0" encoding="UTF-8"?>
<svg id="Layer_1" xmlns="http://www.w3.org/2000/svg" version="1.1" viewBox="0 0 87.99 88.01">
  <!-- Generator: Adobe Illustrator 29.8.2, SVG Export Plug-In . SVG Version: 2.1.1 Build 3)  -->
  <defs>
    <style>
      .st0 {
        fill: #f5f5f5;
      }
    </style>
  </defs>
  <path class="st0" d="M38.81.25c35.49-3.64,60.91,33.53,43.62,65.05-15.24,27.78-54.59,30.7-73.63,5.31C-11.46,43.6,5.24,3.69,38.81.25ZM17.68,70.23c34.45,34.45,86.58-17.97,52.59-52.31C36.09-16.6-16.93,35.61,17.68,70.23Z"/>
  <path class="st0" d="M26.69,34.8c.69-.14,1.24-.15,1.94,0,3.05.63,11.68,12,15.04,14.15,1.54.27,11.93-12.72,14.62-13.83,3-1.24,5.85.38,5.37,3.67-.34,2.32-15.63,15.26-17.84,18.46-.78.62-1.81.69-2.75.53-2.4-.42-15.29-15.5-18.36-17.93-1.36-1.89-.29-4.58,1.98-5.05Z"/>
</svg>