<?xml version="1.0" encoding="UTF-8"?>
<svg id="Layer_1" xmlns="http://www.w3.org/2000/svg" version="1.1" viewBox="0 0 346.23 125.29">
  <!-- Generator: Adobe Illustrator 29.8.2, SVG Export Plug-In . SVG Version: 2.1.1 Build 3)  -->
  <defs>
    <style>
      .st0 {
        fill: #2f486d;
      }
    </style>
  </defs>
  <path class="st0" d="M95.1,38.2c.99,1.54,2.91,1.72,4.33,2.94,3.6,3.11,2.6,6.81,2.68,11.07,8.59-3.9,17.98-.41,20.33,9.04,2.85,11.41-4.08,22.98-12.79,29.77,5.02.32,15.41,1.7,18.57,5.97s-.24,7.35-4.08,9.33c-14.51,7.49-54.69,9.65-70.47,5.91-5.27-1.25-14.99-4.42-15.74-10.68,1.25-17.89-1.63-37.95-.01-55.57.51-5.6,7.85-7.85,12.52-9.05,7.72-1.97,15.63-2.11,23.55-2.06l1.09-3.38c-14.06-12.01,4.92-29.43,16.03-14.46,16.07-4.03,20.12,19.57,3.99,21.15ZM89.79,33.97c3.96.74,10.37.38,11.2-4.7,1.3-7.99-6.12-10.62-12.1-6.72-1.23-1.48-1.27-3.38-2.67-4.87-6.13-6.53-16.67,2.44-10,9.46.96,1.01,3.71,1.93,3.76,3.2l-6.77,18.64c3.01,2.11,7.04,2.04,10.43.94l6.14-15.96ZM70.76,42.97l1.07-3-.81-1.17c-7.86.54-15.61.46-23.11,3.16-1.47.53-7.98,2.91-5.53,5.26,1.49,1.43,5.09-1.2,6.9-1.73,6.97-2.03,14.22-2.63,21.47-2.52ZM90.26,45.72l5.74,2.09c4.85-1.8-1.86-5.77-4.42-5.87-1.36-.06-1.24,2.88-1.32,3.78ZM41.72,52.21v48.79c0,2.03,5.66,4.85,7.41,5.53,10.92,4.26,27.34,4.31,38.54,1.05,2.08-.61,10.13-3.69,10.13-6.05v-49.87c-17.33,7.84-38.35,6.72-56.07.54ZM102.11,89.95c9.72-3.79,17.12-13.95,16.73-24.55-.36-9.76-8.65-13.21-16.76-8.51l.02,3.95c18.14-8.62,15.16,13.88,5.64,22.09-1.1.95-5.39,3.06-5.56,3.33-.42.67.09,2.73-.08,3.69ZM102.11,81.33c5.09-1.71,9.36-9.7,9.21-14.83-.21-7.44-9.21-1.25-9.21,0v14.83Z"/>
  <g>
    <path class="st0" d="M171.63,50.64c-.44.37-1.01.67-1.7.89-.69.22-1.49.33-2.41.33-1.22,0-2.22-.15-3.01-.46-.79-.3-1.31-.83-1.55-1.57-.95-2.97-1.72-5.38-2.33-7.22-.61-1.84-1.08-3.45-1.42-4.84h-.25c-.1,1.99-.18,3.81-.23,5.45-.05,1.64-.08,3.23-.1,4.79-.02,1.55-.05,3.12-.1,4.71-.05,1.59-.13,3.34-.23,5.27-.44.17-1.01.31-1.72.43-.71.12-1.42.18-2.13.18-1.49,0-2.64-.24-3.47-.71-.83-.47-1.24-1.33-1.24-2.58l1.47-25.84c.27-.44.86-.91,1.77-1.42.91-.51,2.19-.76,3.85-.76,1.79,0,3.19.28,4.2.84,1.01.56,1.76,1.46,2.23,2.71.3.81.63,1.74.99,2.79.35,1.05.71,2.13,1.06,3.24.35,1.11.7,2.22,1.04,3.32.34,1.1.64,2.09.91,2.96h.25c.81-2.84,1.62-5.58,2.43-8.23.81-2.65,1.55-4.87,2.23-6.66.51-.27,1.16-.5,1.95-.68.79-.19,1.68-.28,2.66-.28,1.65,0,3.01.25,4.05.73,1.05.49,1.65,1.19,1.82,2.1.13.68.28,1.71.43,3.12.15,1.4.31,2.98.48,4.74.17,1.76.34,3.61.51,5.57.17,1.96.33,3.84.48,5.65.15,1.81.28,3.46.38,4.96.1,1.5.17,2.66.2,3.47-.57.34-1.17.58-1.8.73-.63.15-1.43.23-2.41.23-1.28,0-2.36-.22-3.24-.66-.88-.44-1.35-1.3-1.42-2.58-.2-3.68-.33-6.99-.38-9.93-.05-2.94-.13-5.4-.23-7.4h-.25c-.34,1.32-.83,2.97-1.47,4.96-.64,1.99-1.42,4.54-2.33,7.65Z"/>
    <path class="st0" d="M200.25,32.81c1.82,0,3.49.19,4.99.56,1.5.37,2.79.94,3.85,1.7,1.06.76,1.88,1.72,2.46,2.89.57,1.17.86,2.54.86,4.13v11.35c0,.88-.25,1.6-.73,2.15-.49.56-1.07,1.04-1.75,1.44-2.2,1.32-5.29,1.98-9.27,1.98-1.79,0-3.4-.17-4.84-.51-1.44-.34-2.67-.84-3.7-1.52-1.03-.68-1.82-1.54-2.38-2.58-.56-1.05-.84-2.26-.84-3.65,0-2.33.69-4.12,2.08-5.37,1.38-1.25,3.53-2.03,6.43-2.33l6.64-.71v-.35c0-.98-.43-1.68-1.29-2.1-.86-.42-2.1-.63-3.72-.63-1.28,0-2.53.14-3.75.41-1.22.27-2.31.61-3.29,1.01-.44-.3-.81-.77-1.11-1.39-.3-.62-.46-1.27-.46-1.95,0-.88.21-1.58.63-2.1.42-.52,1.07-.97,1.95-1.34.98-.37,2.14-.64,3.47-.81,1.33-.17,2.59-.25,3.77-.25ZM200.66,52.72c.57,0,1.21-.06,1.9-.18.69-.12,1.21-.28,1.54-.48v-4.05l-3.65.3c-.95.07-1.72.27-2.33.61-.61.34-.91.84-.91,1.52s.26,1.22.79,1.65c.52.42,1.41.63,2.66.63Z"/>
    <path class="st0" d="M226.29,58.14c-.34.1-.87.2-1.6.3-.73.1-1.48.15-2.25.15s-1.41-.05-2-.15c-.59-.1-1.09-.3-1.49-.61-.41-.3-.72-.72-.94-1.24-.22-.52-.33-1.21-.33-2.05v-15.2c0-.78.14-1.44.43-2,.29-.56.7-1.06,1.24-1.49.54-.44,1.21-.84,2-1.19.79-.35,1.65-.67,2.56-.94.91-.27,1.86-.48,2.84-.63.98-.15,1.96-.23,2.94-.23,1.62,0,2.9.31,3.85.94.95.63,1.42,1.65,1.42,3.06,0,.47-.07.94-.2,1.39-.14.46-.3.87-.51,1.24-.71,0-1.44.03-2.18.1-.74.07-1.47.17-2.18.3-.71.14-1.38.28-2,.43-.62.15-1.16.33-1.6.53v17.27Z"/>
    <path class="st0" d="M263.02,45.88c0,2.09-.32,3.96-.96,5.6-.64,1.64-1.54,3.01-2.71,4.13-1.17,1.11-2.56,1.96-4.18,2.53-1.62.57-3.43.86-5.42.86s-3.8-.3-5.42-.91c-1.62-.61-3.01-1.48-4.18-2.61-1.17-1.13-2.07-2.51-2.71-4.13-.64-1.62-.96-3.44-.96-5.47s.32-3.8.96-5.42c.64-1.62,1.55-3,2.71-4.13,1.17-1.13,2.56-2,4.18-2.61s3.43-.91,5.42-.91,3.8.31,5.42.94c1.62.63,3.01,1.5,4.18,2.63,1.17,1.13,2.07,2.51,2.71,4.13.64,1.62.96,3.41.96,5.37ZM245.29,45.88c0,2.06.4,3.64,1.19,4.74.79,1.1,1.9,1.65,3.32,1.65s2.51-.56,3.27-1.67c.76-1.11,1.14-2.69,1.14-4.71s-.39-3.59-1.17-4.69c-.78-1.1-1.87-1.65-3.29-1.65s-2.52.55-3.29,1.65c-.78,1.1-1.17,2.66-1.17,4.69Z"/>
    <path class="st0" d="M298.38,39.04c.64-.27,1.24-.46,1.8-.58.56-.12,1.12-.18,1.7-.18.81,0,1.47.12,1.98.35.51.24.9.57,1.19.99.29.42.48.92.58,1.49.1.57.15,1.2.15,1.87,0,2.74-.69,5.34-2.08,7.8l3.9,3.75c-.07,1.28-.51,2.33-1.32,3.14-.81.81-1.77,1.22-2.89,1.22-1.35,0-2.67-.64-3.95-1.92l-.96-.91c-1.25.91-2.68,1.63-4.28,2.15-1.6.52-3.39.79-5.34.79s-3.75-.26-5.27-.79c-1.52-.52-2.8-1.24-3.85-2.15-1.05-.91-1.84-1.98-2.38-3.22-.54-1.23-.81-2.58-.81-4.03,0-1.25.19-2.36.56-3.34.37-.98.86-1.84,1.47-2.58.61-.74,1.28-1.38,2.03-1.9.74-.52,1.5-.95,2.28-1.29-.68-.81-1.16-1.67-1.44-2.58-.29-.91-.43-1.77-.43-2.58,0-1.05.22-2.03.66-2.94.44-.91,1.06-1.71,1.87-2.38.81-.68,1.8-1.2,2.96-1.57,1.17-.37,2.49-.56,3.98-.56,2.13,0,3.63.38,4.51,1.14.88.76,1.32,1.73,1.32,2.91,0,.57-.11,1.13-.33,1.67-.22.54-.55,1.03-.99,1.47-.37-.17-.8-.3-1.29-.41-.49-.1-1.01-.15-1.55-.15-.88,0-1.6.14-2.18.41-.57.27-.86.76-.86,1.47,0,.51.22,1.02.66,1.55.44.52.98,1.11,1.62,1.75l6.48,6.28c.17-.74.3-1.62.38-2.63.08-1.01.13-2.18.13-3.5ZM284.65,48.26c0,1.18.4,2.17,1.19,2.96.79.79,1.97,1.19,3.52,1.19.68,0,1.38-.09,2.13-.28.74-.19,1.45-.5,2.13-.94l-6.48-6.54c-.81.37-1.43.88-1.85,1.52-.42.64-.63,1.33-.63,2.08Z"/>
  </g>
  <g>
    <path class="st0" d="M171.63,95.83c-.44.37-1.01.67-1.7.89-.69.22-1.49.33-2.41.33-1.22,0-2.22-.15-3.01-.46-.79-.3-1.31-.83-1.55-1.57-.95-2.97-1.72-5.38-2.33-7.22-.61-1.84-1.08-3.45-1.42-4.84h-.25c-.1,1.99-.18,3.81-.23,5.45-.05,1.64-.08,3.23-.1,4.79-.02,1.55-.05,3.12-.1,4.71-.05,1.59-.13,3.34-.23,5.27-.44.17-1.01.31-1.72.43-.71.12-1.42.18-2.13.18-1.49,0-2.64-.24-3.47-.71-.83-.47-1.24-1.33-1.24-2.58l1.47-25.84c.27-.44.86-.91,1.77-1.42.91-.51,2.19-.76,3.85-.76,1.79,0,3.19.28,4.2.84,1.01.56,1.76,1.46,2.23,2.71.3.81.63,1.74.99,2.79.35,1.05.71,2.13,1.06,3.24.35,1.11.7,2.22,1.04,3.32.34,1.1.64,2.09.91,2.96h.25c.81-2.84,1.62-5.58,2.43-8.23.81-2.65,1.55-4.87,2.23-6.66.51-.27,1.16-.5,1.95-.68.79-.19,1.68-.28,2.66-.28,1.65,0,3.01.25,4.05.73,1.05.49,1.65,1.19,1.82,2.1.13.68.28,1.71.43,3.12.15,1.4.31,2.98.48,4.74.17,1.76.34,3.61.51,5.57.17,1.96.33,3.84.48,5.65.15,1.81.28,3.46.38,4.96.1,1.5.17,2.66.2,3.47-.57.34-1.17.58-1.8.73-.63.15-1.43.23-2.41.23-1.28,0-2.36-.22-3.24-.66-.88-.44-1.35-1.3-1.42-2.58-.2-3.68-.33-6.99-.38-9.93-.05-2.94-.13-5.4-.23-7.4h-.25c-.34,1.32-.83,2.97-1.47,4.96-.64,1.99-1.42,4.54-2.33,7.65Z"/>
    <path class="st0" d="M217.93,91.07c0,2.09-.32,3.96-.96,5.6-.64,1.64-1.54,3.01-2.71,4.13-1.17,1.11-2.56,1.96-4.18,2.53-1.62.57-3.43.86-5.42.86s-3.8-.3-5.42-.91c-1.62-.61-3.01-1.48-4.18-2.61-1.17-1.13-2.07-2.51-2.71-4.13-.64-1.62-.96-3.44-.96-5.47s.32-3.8.96-5.42c.64-1.62,1.55-3,2.71-4.13,1.17-1.13,2.56-2,4.18-2.61s3.43-.91,5.42-.91,3.8.31,5.42.94c1.62.63,3.01,1.5,4.18,2.63,1.17,1.13,2.07,2.51,2.71,4.13.64,1.62.96,3.41.96,5.37ZM200.2,91.07c0,2.06.4,3.64,1.19,4.74.79,1.1,1.9,1.65,3.32,1.65s2.51-.56,3.27-1.67c.76-1.11,1.14-2.69,1.14-4.71s-.39-3.59-1.17-4.69c-.78-1.1-1.87-1.65-3.29-1.65s-2.52.55-3.29,1.65c-.78,1.1-1.17,2.66-1.17,4.69Z"/>
    <path class="st0" d="M238.55,84.79c-.84,0-1.65.14-2.41.41-.76.27-1.42.67-1.98,1.19-.56.52-1.01,1.17-1.34,1.95-.34.78-.51,1.69-.51,2.74,0,2.09.6,3.67,1.8,4.71,1.2,1.05,2.66,1.57,4.38,1.57,1.01,0,1.89-.12,2.63-.35.74-.24,1.4-.49,1.98-.76.68.47,1.18.99,1.52,1.55.34.56.51,1.22.51,2,0,1.39-.66,2.46-1.98,3.22s-3.14,1.14-5.47,1.14c-2.13,0-4.05-.31-5.77-.94-1.72-.62-3.2-1.5-4.43-2.63-1.23-1.13-2.19-2.49-2.86-4.08-.68-1.59-1.01-3.34-1.01-5.27,0-2.23.36-4.18,1.09-5.85.73-1.67,1.71-3.05,2.96-4.13,1.25-1.08,2.69-1.89,4.33-2.43,1.64-.54,3.37-.81,5.19-.81,2.43,0,4.31.44,5.62,1.32,1.32.88,1.98,2.01,1.98,3.39,0,.64-.15,1.24-.46,1.8-.3.56-.66,1.04-1.06,1.44-.57-.27-1.27-.53-2.08-.79-.81-.25-1.69-.38-2.63-.38Z"/>
    <path class="st0" d="M276.29,103.33c-.34.1-.87.2-1.6.3-.73.1-1.48.15-2.25.15s-1.41-.05-2-.15c-.59-.1-1.09-.3-1.49-.61-.41-.3-.72-.72-.94-1.24-.22-.52-.33-1.21-.33-2.05v-11.25c0-1.38-.35-2.36-1.04-2.91-.69-.56-1.54-.84-2.56-.84-.68,0-1.32.08-1.93.25-.61.17-1.1.37-1.47.61v17.73c-.34.1-.87.2-1.6.3-.73.1-1.48.15-2.25.15s-1.41-.05-2-.15c-.59-.1-1.09-.3-1.49-.61-.41-.3-.72-.72-.94-1.24-.22-.52-.33-1.21-.33-2.05v-29.38c.37-.07.92-.16,1.65-.28.73-.12,1.46-.18,2.2-.18s1.41.05,2,.15c.59.1,1.09.3,1.49.61.41.3.72.72.94,1.24.22.52.33,1.21.33,2.05v4.96c.44-.17,1.11-.36,2-.58.89-.22,1.88-.33,2.96-.33,3.34,0,5.95.84,7.83,2.51,1.87,1.67,2.81,4.16,2.81,7.47v15.35Z"/>
    <path class="st0" d="M294.28,78c1.82,0,3.49.19,4.99.56,1.5.37,2.79.94,3.85,1.7,1.06.76,1.88,1.72,2.46,2.89.57,1.17.86,2.54.86,4.13v11.35c0,.88-.25,1.6-.73,2.15-.49.56-1.07,1.04-1.75,1.44-2.2,1.32-5.29,1.98-9.27,1.98-1.79,0-3.4-.17-4.84-.51-1.44-.34-2.67-.84-3.7-1.52-1.03-.68-1.82-1.54-2.38-2.58-.56-1.05-.84-2.26-.84-3.65,0-2.33.69-4.12,2.08-5.37,1.38-1.25,3.53-2.03,6.43-2.33l6.64-.71v-.35c0-.98-.43-1.68-1.29-2.1-.86-.42-2.1-.63-3.72-.63-1.28,0-2.53.14-3.75.41-1.22.27-2.31.61-3.29,1.01-.44-.3-.81-.77-1.11-1.39-.3-.62-.46-1.27-.46-1.95,0-.88.21-1.58.63-2.1.42-.52,1.07-.97,1.95-1.34.98-.37,2.14-.64,3.47-.81,1.33-.17,2.59-.25,3.77-.25ZM294.68,97.91c.57,0,1.21-.06,1.9-.18.69-.12,1.21-.28,1.54-.48v-4.05l-3.65.3c-.95.07-1.72.27-2.33.61-.61.34-.91.84-.91,1.52s.26,1.22.79,1.65c.52.42,1.41.63,2.66.63Z"/>
  </g>
</svg>