<?xml version="1.0" encoding="UTF-8"?>
<svg id="Layer_1" xmlns="http://www.w3.org/2000/svg" version="1.1" viewBox="0 0 346.23 125.29">
  <!-- Generator: Adobe Illustrator 29.8.2, SVG Export Plug-In . SVG Version: 2.1.1 Build 3)  -->
  <defs>
    <style>
      .st0, .st1, .st2 {
        fill: #2f486d;
      }

      .st1, .st2 {
        font-family: BalooBhaijaan-Regular, 'Baloo Bhaijaan';
        font-size: 50.66px;
      }

      .st2 {
        letter-spacing: .05em;
      }
    </style>
  </defs>
  <path class="st0" d="M95.1,38.2c.99,1.54,2.91,1.72,4.33,2.94,3.6,3.11,2.6,6.81,2.68,11.07,8.59-3.9,17.98-.41,20.33,9.04,2.85,11.41-4.08,22.98-12.79,29.77,5.02.32,15.41,1.7,18.57,5.97s-.24,7.35-4.08,9.33c-14.51,7.49-54.69,9.65-70.47,5.91-5.27-1.25-14.99-4.42-15.74-10.68,1.25-17.89-1.63-37.95-.01-55.57.51-5.6,7.85-7.85,12.52-9.05,7.72-1.97,15.63-2.11,23.55-2.06l1.09-3.38c-14.06-12.01,4.92-29.43,16.03-14.46,16.07-4.03,20.12,19.57,3.99,21.15ZM89.79,33.97c3.96.74,10.37.38,11.2-4.7,1.3-7.99-6.12-10.62-12.1-6.72-1.23-1.48-1.27-3.38-2.67-4.87-6.13-6.53-16.67,2.44-10,9.46.96,1.01,3.71,1.93,3.76,3.2l-6.77,18.64c3.01,2.11,7.04,2.04,10.43.94l6.14-15.96ZM70.76,42.97l1.07-3-.81-1.17c-7.86.54-15.61.46-23.11,3.16-1.47.53-7.98,2.91-5.53,5.26,1.49,1.43,5.09-1.2,6.9-1.73,6.97-2.03,14.22-2.63,21.47-2.52ZM90.26,45.72l5.74,2.09c4.85-1.8-1.86-5.77-4.42-5.87-1.36-.06-1.24,2.88-1.32,3.78ZM41.72,52.21v48.79c0,2.03,5.66,4.85,7.41,5.53,10.92,4.26,27.34,4.31,38.54,1.05,2.08-.61,10.13-3.69,10.13-6.05v-49.87c-17.33,7.84-38.35,6.72-56.07.54ZM102.11,89.95c9.72-3.79,17.12-13.95,16.73-24.55-.36-9.76-8.65-13.21-16.76-8.51l.02,3.95c18.14-8.62,15.16,13.88,5.64,22.09-1.1.95-5.39,3.06-5.56,3.33-.42.67.09,2.73-.08,3.69ZM102.11,81.33c5.09-1.71,9.36-9.7,9.21-14.83-.21-7.44-9.21-1.25-9.21,0v14.83Z"/>
  <text class="st1" transform="translate(147.11 58.19)"><tspan x="0" y="0">Maro &amp;</tspan></text>
  <text class="st2" transform="translate(147.11 103.38)"><tspan x="0" y="0">Mocha</tspan></text>
</svg>