<?xml version="1.0" encoding="UTF-8"?>
<svg id="Layer_5" xmlns="http://www.w3.org/2000/svg" version="1.1" viewBox="0 0 141.67 88.55">
  <!-- Generator: Adobe Illustrator 29.8.2, SVG Export Plug-In . SVG Version: 2.1.1 Build 3)  -->
  <defs>
    <style>
      .st0 {
        fill: #c0a46b;
      }

      .st1 {
        fill: #2c4a3a;
      }
    </style>
  </defs>
  <path class="st1" d="M84.47,1.94c.32.13,1.78.92,2.32,1.21,14.44,7.59,16.9,26.05,6.41,38.14-2.17,2.5-6.43,5.04-7.36,7.97-.76,2.38-.84,4.81-2.06,7.19-4.88,9.46-22.95,15.54-32.89,13.49-11.27-2.33-3.44-16.43.8-21.95,5.17-6.75,13.25-11.84,22.04-11.33,3.3.19,8.46,2.45,10.78-1.12,2.79-4.29.35-12.95-3.5-16.14-10.16-8.42-21.72,1.69-27.98,9.74-.43.55-2.71,4.06-2.96,4.11-.31.06-.53-.28-.7-.49-2.09-2.69-3.32-5.79-5.85-8.51-6.14-6.6-16-10.38-23.86-4.13-10.95,8.71-3.5,27.04,3.77,35.88,12.1,14.71,27.5,23.26,47.12,22.04,8.09-.5,21.56-5.82,26.03-12.92,1.36-2.17.42-4.52.63-6.91.61-6.84,9.44-14.54,14.36-18.99,3.66-3.31,9.11-8.32,13.03-11.07,2.02-1.41,3.94-.32,2.65,1.68-3.68,5.7-10.99,10.91-14.78,16.74-1.02.72-4.18,3.67-1.01,3.01,5.48-4.38,10.58-9.83,16.06-14.13.51-.4,3.28-2.38,3.67-2.44,1.18-.17,1.85,1.17,1.44,2.19-4.25,4.69-9.47,8.91-13.64,13.63-.6.68-3.23,3.9-3.29,4.52-.1,1.08.76,1.14,1.56.81,4.33-1.81,11.2-9.68,15-13,.93-.81,4.65-4.27,4.64-.97,0,.8-2.15,3.24-2.81,4.02-3.65,4.32-8.79,8.74-12.06,13.26-1.71,2.36-.22,2.45,1.69,1.2,4.7-3.09,10.03-8.88,14.28-12.87.85-.8,1.52-2.45,3.02-1.72,1.81.88-.73,3.43-1.47,4.37-4.9,6.29-11.48,13.79-17.28,19.23-3.16,2.97-7.12,6.6-11.78,6.17-.99-.09-2.32-.7-3.2-.7-1.71,0-4.06,2.73-5.49,3.76-32.26,23.21-81.39,10.21-97.84-25.81C-3.71,34.26-1.03,9,18.91,2.58c9.17-2.96,23.76.13,29.36,8.4.5.74,1.48,3.21,2.3,3.06.16-.03,1.1-1.77,1.35-2.08C59.58,2.27,72.42-3.13,84.47,1.94Z"/>
  <path class="st0" d="M40.96,52.96h-3.53c-1.99,0-7.75-2.27-9.46-3.45-7.22-4.99-6.31-18.42-3.2-25.51.84-1.91,4.39-.44,5.96.13,8.19,2.96,14.7,9.47,15.34,18.49.08,1.08.07,7.69-.85,7.9l-3.41-3.65-2.91-3.66-4.51-4.25,6.57,13.99Z"/>
</svg>